<svg preserveAspectRatio="none" overflow="visible" style="display: block;" width="16.3533" height="17.2333" viewBox="0 0 16.3533 17.2333" fill="none" xmlns="http://www.w3.org/2000/svg">
<g id="Group">
<path id="Vector" d="M7.27833 10.9083C8.79712 10.9083 10.0283 9.67712 10.0283 8.15833C10.0283 6.63955 8.79712 5.40833 7.27833 5.40833C5.75955 5.40833 4.52833 6.63955 4.52833 8.15833C4.52833 9.67712 5.75955 10.9083 7.27833 10.9083Z" stroke="#059669" stroke-width="1.65" stroke-linecap="round" stroke-linejoin="round"/>
<path id="Vector_2" d="M14.0617 10.9083C13.9296 11.2093 13.8905 11.5429 13.9493 11.8663C14.0081 12.1896 14.1621 12.4881 14.3917 12.7233L14.4467 12.7783L12.5033 14.7217L12.4483 14.6667C12.2131 14.4371 11.9146 14.2831 11.5913 14.2243C11.2679 14.1655 10.9343 14.2046 10.6333 14.3367C10.337 14.4617 10.0838 14.6706 9.90461 14.9377C9.72547 15.2048 9.62828 15.5184 9.625 15.84V16.4083H6.875V16.3258C6.87172 16.0042 6.77454 15.6906 6.59539 15.4235C6.41625 15.1565 6.16296 14.9476 5.86667 14.8225C5.56567 14.6905 5.23211 14.6514 4.90874 14.7102C4.58537 14.769 4.28692 14.923 4.05167 15.1525L3.99667 15.2075L2.05333 13.2642L2.10833 13.2092C2.43905 12.9309 2.64736 12.534 2.6885 12.1037C2.72964 11.6735 2.60032 11.2442 2.32833 10.9083C2.20328 10.612 1.99437 10.3588 1.72729 10.1796C1.4602 10.0005 1.14658 9.90328 0.825 9.9H0.861667V7.15H0.944167C1.24506 7.12467 1.53324 7.01726 1.77731 6.83946C2.02137 6.66167 2.21197 6.42031 2.32833 6.14167C2.46035 5.84067 2.49947 5.50711 2.44068 5.18374C2.38188 4.86037 2.22785 4.56192 1.99833 4.32667L1.94333 4.27167L3.88667 2.32833L3.94167 2.38333C4.17692 2.61285 4.47537 2.76688 4.79874 2.82568C5.12211 2.88447 5.45567 2.84535 5.75667 2.71333C6.05582 2.58706 6.31106 2.37532 6.49043 2.10464C6.66979 1.83396 6.7653 1.51638 6.765 1.19167V0.825H9.515V0.9075C9.51828 1.22908 9.61547 1.5427 9.79461 1.80979C9.97375 2.07687 10.227 2.28578 10.5233 2.41083C10.8243 2.54285 11.1579 2.58197 11.4813 2.52318C11.8046 2.46438 12.1031 2.31035 12.3383 2.08083L12.3933 2.02583L14.3367 3.96917L14.2817 4.02417C14.0521 4.25942 13.8981 4.55787 13.8393 4.88124C13.7805 5.20461 13.8196 5.53817 13.9517 5.83917C14.0767 6.13546 14.2856 6.38875 14.5527 6.56789C14.8198 6.74704 15.1334 6.84422 15.455 6.8475H15.5283V9.5975H15.4458C15.1078 9.64592 14.7932 9.79801 14.5453 10.0328C14.2974 10.2676 14.1284 10.5735 14.0617 10.9083Z" stroke="#059669" stroke-width="1.65" stroke-linecap="round" stroke-linejoin="round"/>
</g>
</svg>
